<?xml version="1.0" standalone="no"?>
<!DOCTYPE svg PUBLIC "-//W3C//DTD SVG 20010904//EN"
 "http://www.w3.org/TR/2001/REC-SVG-20010904/DTD/svg10.dtd">
<svg version="1.0" xmlns="http://www.w3.org/2000/svg"
 width="512.000000pt" height="512.000000pt" viewBox="0 0 512.000000 512.000000"
 preserveAspectRatio="xMidYMid meet">

<g transform="translate(0.000000,512.000000) scale(0.100000,-0.100000)"
fill="#000000" stroke="none">
<path d="M2318 5035 c-646 -92 -1178 -517 -1382 -1104 -53 -152 -76 -275 -83
-447 -9 -221 17 -400 88 -599 76 -216 173 -357 644 -940 464 -574 692 -1004
830 -1565 18 -75 39 -170 46 -213 7 -42 17 -77 21 -77 4 0 8 7 8 15 0 25 93
300 148 435 98 245 201 447 349 684 138 221 292 422 628 826 263 316 434 549
505 691 41 81 97 246 122 363 19 86 22 133 22 311 0 180 -3 224 -22 311 -69
317 -219 591 -447 819 -253 252 -570 416 -925 480 -129 23 -424 29 -552 10z
m437 -780 c92 -25 233 -97 306 -158 125 -104 221 -261 260 -424 28 -115 23
-291 -11 -398 -96 -306 -344 -514 -662 -555 -321 -43 -657 147 -796 447 -49
107 -72 211 -72 327 0 387 270 705 658 776 66 13 246 4 317 -15z"/>
</g>
</svg>
